<?xml version="1.0" encoding="UTF-8"?>
<svg width="117px" height="118px" viewBox="0 0 117 118" version="1.1" xmlns="http://www.w3.org/2000/svg" xmlns:xlink="http://www.w3.org/1999/xlink">
    <title>Brand Icons /  Bi-Color / Books</title>
    <g id="One-Panel" stroke="none" stroke-width="1" fill="none" fill-rule="evenodd">
        <g id="Form-Results-(Empty)" transform="translate(-583.000000, -274.000000)">
            <g id="Empty-Results" transform="translate(181.000000, 130.000000)">
                <g id="Brand-Icons-/--Bi-Color-/-Books" transform="translate(387.000000, 134.000000)">
                    <path d="M68.6535583,10.8439421 L68.7710345,10.8531951 L91.8004368,14.0339268 C92.3508736,14.1096585 92.7368506,14.6195854 92.6613333,15.1715854 L92.6613333,15.1715854 L92.2652874,18.0510732 C92.4431724,17.7599268 92.7485977,17.5562927 93.1110805,17.5562927 L93.1110805,17.5562927 L124.660506,17.5562927 C125.217655,17.5562927 125.66908,18.0073171 125.66908,18.5643659 L125.66908,18.5643659 L125.66908,112.539 C125.66908,113.121293 125.180736,113.582415 124.600092,113.547073 C122.948782,113.439366 121.044069,113.321561 118.956437,113.195341 C113.274184,112.853707 106.194023,112.459902 98.8185057,112.133415 C96.9137931,112.049268 94.993977,111.970171 93.0741609,111.896122 C92.5337931,111.875927 92.1058621,111.431634 92.1058621,110.889732 L92.1058621,110.889732 L92.1058621,21.6794634 C92.1058621,21.4690976 91.7987586,21.4472195 91.771908,21.6559024 L91.771908,21.6559024 L88.2662299,47.1976829 L88.2628736,47.196 L84.3275862,75.8377317 L84.3309425,75.8377317 L81.6861609,95.1106098 L81.6794483,95.1106098 L79.5481839,110.622146 C79.4793793,111.127024 79.0397011,111.500634 78.5312184,111.49222 C76.712092,111.465293 74.9416322,111.450146 73.250046,111.450146 C73.0570575,111.450146 72.8523218,111.453512 72.6576552,111.453512 C68.9086437,111.458561 64.8508506,111.534293 60.6822989,111.657146 C58.9907126,111.705951 57.2907356,111.759805 55.5790115,111.822073 C55.0101149,111.843951 54.4412184,111.865829 53.874,111.887707 C52.2008736,111.951659 50.5243908,112.020659 48.8663678,112.093024 C41.4925287,112.421195 34.4090115,112.821732 28.7284368,113.17178 C26.6391264,113.301366 24.736092,113.422537 23.0847816,113.531927 C22.5041379,113.570634 22.0157931,113.107829 22.0157931,112.523854 L22.0157931,112.523854 L22.0157931,28.5744146 C22.0157931,28.0173659 22.4672184,27.5663415 23.0226897,27.5663415 L23.0226897,27.5663415 L54.5721149,27.5663415 C55.1292644,27.5663415 55.5790115,28.0173659 55.5790115,28.5744146 L55.5790115,28.5744146 L55.5790115,97.0240976 C55.5790115,97.2344634 55.8844368,97.2546585 55.9129655,97.0476585 L55.9129655,97.0476585 L67.6365977,11.7165366 C67.7121149,11.1645366 68.2189195,10.7774634 68.7710345,10.8531951 Z M118.956437,24.288 L98.8185057,24.288 L98.8185057,105.384878 C106.163816,105.709683 113.238943,106.098439 118.956437,106.441756 L118.956437,106.441756 L118.956437,24.288 Z M48.8663678,34.2980488 L28.7284368,34.2980488 L28.7284368,106.416512 C34.4476092,106.066463 41.5210575,105.669293 48.8663678,105.347854 L48.8663678,105.347854 L48.8663678,34.2980488 Z M63.3052644,92.5727561 L61.612,104.885049 C65.6681149,104.775659 69.6101149,104.708341 73.250046,104.708341 C73.3608046,104.708341 73.4732414,104.710024 73.5856782,104.710024 L73.5856782,104.710024 L75.0305747,94.1917317 L63.3052644,92.5727561 Z M111.235218,31.0197073 C111.792368,31.0197073 112.243793,31.4707317 112.243793,32.0277805 L112.243793,32.0277805 L112.243793,98.3822195 C112.243793,98.9392683 111.792368,99.3936585 111.235218,99.3936585 L111.235218,99.3936585 L106.536368,99.3936585 C105.980897,99.3936585 105.531149,98.9392683 105.531149,98.3822195 L105.531149,98.3822195 L105.531149,32.0277805 C105.531149,31.4707317 105.980897,31.0197073 106.536368,31.0197073 L106.536368,31.0197073 Z M41.1468276,57.8590244 C41.703977,57.8590244 42.1537241,58.3100488 42.1537241,58.8670976 L42.1537241,58.8670976 L42.1537241,96.8961951 C42.1537241,97.4532439 41.703977,97.9059512 41.1468276,97.9059512 L41.1468276,97.9059512 L36.447977,97.9059512 C35.8925057,97.9059512 35.4410805,97.4532439 35.4410805,96.8961951 L35.4410805,96.8961951 L35.4410805,58.8670976 C35.4410805,58.3100488 35.8925057,57.8590244 36.447977,57.8590244 L36.447977,57.8590244 Z M65.0404828,79.9693171 L64.2248966,85.905 L75.9468506,87.5239756 L76.7607586,81.5866098 L65.0404828,79.9693171 Z M69.7007356,45.8866829 L65.8929885,73.7105122 L77.619977,75.3294878 L81.4277241,47.5056585 L69.7007356,45.8866829 Z M41.1468276,41.0297561 C41.703977,41.0297561 42.1537241,41.4807805 42.1537241,42.0378293 L42.1537241,42.0378293 L42.1537241,50.117561 C42.1537241,50.6746098 41.703977,51.1273171 41.1468276,51.1273171 L41.1468276,51.1273171 L36.447977,51.1273171 C35.8925057,51.1273171 35.4410805,50.6746098 35.4410805,50.117561 L35.4410805,50.117561 L35.4410805,42.0378293 C35.4410805,41.4807805 35.8925057,41.0297561 36.447977,41.0297561 L36.447977,41.0297561 Z M71.4325977,33.279878 L70.6170115,39.2172439 L82.3423218,40.8379024 L83.1595862,34.9005366 L71.4325977,33.279878 Z M73.448069,18.7124634 L72.3471954,26.612122 L84.0758621,28.2310976 L85.1750575,20.333122 L73.448069,18.7124634 Z" id="🎨-Accent-Color" fill="#898B8E"></path>
                    <path d="M15.7747126,121.823707 C16.0297931,124.977512 18.7551264,127.342024 21.9050345,127.131659 C32.6234483,126.413049 56.3006207,124.97078 73.250046,124.97078 C90.3001609,124.97078 114.823126,126.429878 125.78823,127.143439 C128.938138,127.348756 131.658437,124.975829 131.903448,121.818659 C131.945402,121.259927 131.537609,120.773561 130.978782,120.733171 C125.011241,120.320854 93.8175862,118.228976 73.250046,118.228976 C52.7211034,118.228976 22.5628736,120.310756 16.6993793,120.731488 C16.1422299,120.771878 15.7310805,121.259927 15.7747126,121.818659 L15.7747126,121.823707" id="🎨-Brand-Color" fill="#E05929"></path>
                </g>
            </g>
        </g>
    </g>
</svg>