<?xml version="1.0" encoding="UTF-8"?>
<svg width="62px" height="82px" viewBox="0 0 62 82" version="1.1" xmlns="http://www.w3.org/2000/svg" xmlns:xlink="http://www.w3.org/1999/xlink">
    <title>Brand Icons /  Bi-Color / Touch</title>
    <g id="One-Panel" stroke="none" stroke-width="1" fill="none" fill-rule="evenodd">
        <g id="CSV-Results" transform="translate(-848.000000, -304.000000)" fill="#898B8E">
            <g id="Details" transform="translate(561.000000, 100.000000)">
                <g id="Brand-Icons-/--Bi-Color-/-Touch" transform="translate(268.000000, 198.000000)">
                    <path d="M80.0804598,51.8146341 L80.0574713,52.1470732 L80.0574713,52.2387805 C80,58.1882927 79.5862069,63.2207317 79.7586207,68.9753659 L79.7586207,71.3941463 C79.7586207,71.7265854 79.6666667,71.9214634 79.3448276,71.9214634 L75.7241379,71.8641463 C75.2643678,71.8526829 74.908046,71.4973171 74.8965517,71.0617073 C74.8735632,67.8978049 74.9310345,63.9658537 75.0574713,60.2058537 C75.0574713,60.1256098 75.0689655,60.0339024 75.0689655,59.9536585 L75.4597701,52.8692683 L75.4597701,51.4363415 C75.2988506,49.3614634 73.7586207,47.6534146 71.6781609,47.2980488 L50.2528736,43.5609756 C49.5862069,43.4463415 49.1034483,42.8846341 49.1034483,42.2082927 L49.1034483,21.6085366 C47.7356322,21.9639024 46.5517241,22.9153659 45.8505747,24.302439 C45.5287356,24.9558537 45.3908046,25.6895122 45.3908046,26.4117073 L45.3908046,26.4346341 L45.3103448,45.8192683 L45.3908046,59.8160976 C45.3908046,60.5612195 45.091954,61.2834146 44.5057471,61.7419512 C43.5287356,62.4870732 42.2068966,62.372439 41.3908046,61.5470732 L31.0229885,51.2070732 C29.3793103,49.5792683 26.8850575,49.3156098 24.9770115,50.4160976 L45.0114943,70.832439 C45.3333333,71.1534146 45.4597701,71.91 45.0114943,71.9902439 C44.0114943,72.1507317 41.2068966,72.0360976 41.2068966,72.0360976 C40.7011494,72.0246341 40.5977011,72.0819512 39.954023,71.8526829 L20.6206897,52.6858537 C20.3103448,52.3763415 20.137931,52.0553659 20.0574713,51.894878 C19.3333333,50.5421951 19.5747126,48.9487805 20.6206897,47.9056098 C24.4022989,44.1341463 30.5517241,44.1341463 34.3333333,47.9056098 L40.7011494,54.2563415 L40.7011494,26.4117073 C40.7011494,24.9673171 40.9770115,23.5114634 41.6321839,22.2160976 C43.4137931,18.7426829 46.7586207,16.7595122 50.4022989,16.7595122 C51.8850575,16.7595122 53.183908,17.722439 53.6321839,19.1668293 C53.6896552,19.3387805 53.7931034,19.6941463 53.7931034,20.1412195 L53.7931034,38.9526829 C53.7931034,39.285122 54.0344828,39.5717073 54.3678161,39.6290244 L72.4712644,42.7814634 C76.8735632,43.5495122 80.0804598,47.3553659 80.0804598,51.8146341" id="🎨-Accent-Color"></path>
                    <path d="M78.5413793,76.9229512 C78.991954,76.9229512 79.3609195,77.2829024 79.3678161,77.7334146 L79.4183908,78.251561 C79.6138558,83.5756918 79.8563253,84.2580283 80.0188413,84.8038545 L80.039144,84.87314 C80.0589927,84.9423783 80.0774504,85.0125162 80.0942529,85.0929268 C80.1275862,85.2522683 80.1448276,85.4116098 80.1448276,85.5720976 C80.1448276,86.1028537 79.962069,86.6255854 79.6195402,87.0462927 C79.1735632,87.5930976 78.5057471,87.9094878 77.8,87.9094878 L42.8551724,87.9094878 C41.5597701,87.9094878 40.5103448,86.862878 40.5103448,85.5720976 L40.5103448,79.2614878 C40.5103448,77.969561 41.5597701,76.9229512 42.8551724,76.9229512 L78.5413793,76.9229512 Z M46.4321839,6.34958537 C56.4045977,5.8944878 64.6344828,13.8237317 64.6344828,23.6685122 C64.6344828,28.438439 62.7011494,32.7544146 59.5770115,35.8885122 C59.1436782,36.3229756 58.3931034,36.0111707 58.3931034,35.3967317 L58.3931034,35.3967317 L58.3931034,30.0719756 C58.3931034,29.9619268 58.4218391,29.8553171 58.4747126,29.757878 C59.4666667,27.9466585 60.0367816,25.8740732 60.0367816,23.6685122 C60.0367816,16.1634146 53.5,10.1508537 45.8057471,10.9957073 C40.1482759,11.6181707 35.4850575,16.0648293 34.6172414,21.6750244 C34.162069,24.6222683 34.7390805,27.4101707 36.0252874,29.757878 C36.0781609,29.8553171 36.1068966,29.9619268 36.1068966,30.0719756 L36.1068966,30.0719756 L36.1068966,35.3967317 C36.1068966,36.0111707 35.3551724,36.3218293 34.9206897,35.8862195 C31.6988506,32.6535366 29.7436782,28.1633171 29.8712644,23.2157073 C30.1011494,14.2421463 37.4402299,6.76112195 46.4321839,6.34958537 Z" id="🎨-Brand-Color"></path>
                </g>
            </g>
        </g>
    </g>
</svg>