<?xml version="1.0" encoding="UTF-8"?>
<svg width="69px" height="68px" viewBox="0 0 69 68" version="1.1" xmlns="http://www.w3.org/2000/svg" xmlns:xlink="http://www.w3.org/1999/xlink">
    <title>Brand Icons /  Bi-Color / Magnifying Glass</title>
    <g id="One-Panel" stroke="none" stroke-width="1" fill="none" fill-rule="evenodd">
        <g id="Landing" transform="translate(-842.000000, -214.000000)">
            <g id="Patient-Search" transform="translate(655.000000, 158.000000)">
                <g id="Brand-Icons-/--Bi-Color-/-Magnifying-Glass" transform="translate(174.000000, 46.000000)">
                    <path d="M40.4048736,14.579779 C27.9288046,14.579779 17.7789655,24.6892006 17.7789655,37.1145127 C17.7789655,49.5409009 27.9288046,59.6503225 40.4048736,59.6503225 C52.8798621,59.6503225 63.0297011,49.5409009 63.0297011,37.1145127 C63.0297011,24.6892006 52.8798621,14.579779 40.4048736,14.579779 Z M40.4048736,63.9549517 C25.5453103,63.9549517 13.4571264,51.9149039 13.4571264,37.1145127 C13.4571264,22.3151976 25.5453103,10.2751498 40.4048736,10.2751498 C55.2633563,10.2751498 67.3515402,22.3151976 67.3515402,37.1145127 C67.3515402,51.9149039 55.2633563,63.9549517 40.4048736,63.9549517 L40.4048736,63.9549517 Z" id="🎨-Accent-Color" fill="#898B8E"></path>
                    <path d="M65.7643448,55.8568681 C65.5266437,55.6201135 65.1409195,55.6502459 64.9377931,55.9160567 C63.6985057,57.5442827 62.2712184,59.0745784 60.644046,60.4682021 C60.2766897,60.7835162 59.9006897,61.0859164 59.5192874,61.377555 C59.2534943,61.5809487 59.2254023,61.966213 59.462023,62.2029676 L75.1448966,77.8223146 C75.3977241,78.0752115 75.8082989,78.0752115 76.0622069,77.8223146 L81.4817931,72.4243096 C81.7346207,72.1714126 81.7346207,71.763549 81.4817931,71.5106521 L65.7643448,55.8568681" id="🎨-Brand-Color" fill="#E05929"></path>
                </g>
            </g>
        </g>
    </g>
</svg>