<?xml version="1.0" encoding="UTF-8"?>
<svg width="63px" height="76px" viewBox="0 0 63 76" version="1.1" xmlns="http://www.w3.org/2000/svg" xmlns:xlink="http://www.w3.org/1999/xlink">
    <title>Brand Icons /  Bi-Color / Application</title>
    <g id="One-Panel" stroke="none" stroke-width="1" fill="none" fill-rule="evenodd">
        <g id="Landing" transform="translate(-373.000000, -192.000000)">
            <g id="CSV-Upload" transform="translate(180.000000, 158.000000)">
                <g id="Brand-Icons-/--Bi-Color-/-Application" transform="translate(179.000000, 28.000000)">
                    <path d="M19.2413793,11.3219512 C36.9872759,13.891122 54.9437586,13.891122 72.6896552,11.3219512 L72.6896552,76.6780488 C63.8172414,75.3934634 54.8903103,74.7506341 45.9655172,74.7506341 C37.0407241,74.7506341 28.1137931,75.3934634 19.2413793,76.6780488 L19.2413793,11.3219512 Z M15.7073793,81.5534634 L17.4380345,81.2787317 C36.3384138,78.2845854 55.5926207,78.2845854 74.493,81.2787317 L76.2236552,81.5534634 C76.6127586,81.6146341 76.9655172,81.3141463 76.9655172,80.9192195 L76.9655172,7.08078049 C76.9655172,6.68585366 76.6127586,6.38536585 76.2236552,6.44653659 L74.493,6.72126829 C55.5926207,9.71541463 36.3384138,9.71541463 17.4380345,6.72126829 L15.7073793,6.44653659 C15.3182759,6.38536585 14.9655172,6.68585366 14.9655172,7.08078049 L14.9655172,80.9192195 C14.9655172,81.3141463 15.3182759,81.6146341 15.7073793,81.5534634 L15.7073793,81.5534634 Z" id="🎨-Accent-Color" fill="#898B8E"></path>
                    <path d="M36.7831034,56.684878 C37.1358621,56.684878 37.4244828,56.9746341 37.4244828,57.3287805 L37.4244828,57.3287805 L37.4244828,68.9190244 C37.4244828,69.2731707 37.1358621,69.5629268 36.7831034,69.5629268 L36.7831034,69.5629268 L25.2382759,69.5629268 C24.8855172,69.5629268 24.5968966,69.2731707 24.5968966,68.9190244 L24.5968966,68.9190244 L24.5968966,57.3287805 C24.5968966,56.9746341 24.8855172,56.684878 25.2382759,56.684878 L25.2382759,56.684878 Z M56.0052414,64.598439 C56.359069,64.598439 56.6466207,64.8860488 56.6466207,65.2423415 L56.6466207,65.2423415 L56.6466207,68.2472195 C56.6466207,68.602439 56.359069,68.891122 56.0052414,68.891122 L56.0052414,68.891122 L41.2535172,68.891122 C40.8986207,68.891122 40.6121379,68.602439 40.6121379,68.2472195 L40.6121379,68.2472195 L40.6121379,65.2423415 C40.6121379,64.8860488 40.8986207,64.598439 41.2535172,64.598439 L41.2535172,64.598439 Z M66.6948966,57.3545366 C67.0487241,57.3545366 67.3362759,57.6421463 67.3362759,57.998439 L67.3362759,57.998439 L67.3362759,61.0033171 C67.3362759,61.3585366 67.0487241,61.6472195 66.6948966,61.6472195 L66.6948966,61.6472195 L41.2535172,61.6472195 C40.8986207,61.6472195 40.6121379,61.3585366 40.6121379,61.0033171 L40.6121379,61.0033171 L40.6121379,57.998439 C40.6121379,57.6421463 40.8986207,57.3545366 41.2535172,57.3545366 L41.2535172,57.3545366 Z M36.7831034,37.5609756 C37.1358621,37.5609756 37.4244828,37.8507317 37.4244828,38.204878 L37.4244828,38.204878 L37.4244828,49.795122 C37.4244828,50.1492683 37.1358621,50.4390244 36.7831034,50.4390244 L36.7831034,50.4390244 L25.2382759,50.4390244 C24.8855172,50.4390244 24.5968966,50.1492683 24.5968966,49.795122 L24.5968966,49.795122 L24.5968966,38.204878 C24.5968966,37.8507317 24.8855172,37.5609756 25.2382759,37.5609756 L25.2382759,37.5609756 Z M56.0052414,45.4756098 C56.359069,45.4756098 56.6466207,45.7642927 56.6466207,46.1195122 L56.6466207,46.1195122 L56.6466207,49.1243902 C56.6466207,49.4796098 56.359069,49.7682927 56.0052414,49.7682927 L56.0052414,49.7682927 L41.2535172,49.7682927 C40.8986207,49.7682927 40.6121379,49.4796098 40.6121379,49.1243902 L40.6121379,49.1243902 L40.6121379,46.1195122 C40.6121379,45.7642927 40.8986207,45.4756098 41.2535172,45.4756098 L41.2535172,45.4756098 Z M66.6948966,38.2317073 C67.0487241,38.2317073 67.3362759,38.5203902 67.3362759,38.8756098 L67.3362759,38.8756098 L67.3362759,41.8804878 C67.3362759,42.2357073 67.0487241,42.5243902 66.6948966,42.5243902 L66.6948966,42.5243902 L41.2535172,42.5243902 C40.8986207,42.5243902 40.6121379,42.2357073 40.6121379,41.8804878 L40.6121379,41.8804878 L40.6121379,38.8756098 C40.6121379,38.5203902 40.8986207,38.2317073 41.2535172,38.2317073 L41.2535172,38.2317073 Z M36.7831034,18.4370732 C37.1358621,18.4370732 37.4244828,18.7268293 37.4244828,19.0809756 L37.4244828,19.0809756 L37.4244828,30.6712195 C37.4244828,31.0253659 37.1358621,31.315122 36.7831034,31.315122 L36.7831034,31.315122 L25.2382759,31.315122 C24.8855172,31.315122 24.5968966,31.0253659 24.5968966,30.6712195 L24.5968966,30.6712195 L24.5968966,19.0809756 C24.5968966,18.7268293 24.8855172,18.4370732 25.2382759,18.4370732 L25.2382759,18.4370732 Z M56.0052414,26.3527805 C56.359069,26.3527805 56.6466207,26.6414634 56.6466207,26.9966829 L56.6466207,26.9966829 L56.6466207,30.001561 C56.6466207,30.3578537 56.359069,30.6454634 56.0052414,30.6454634 L56.0052414,30.6454634 L41.2535172,30.6454634 C40.8986207,30.6454634 40.6121379,30.3578537 40.6121379,30.001561 L40.6121379,30.001561 L40.6121379,26.9966829 C40.6121379,26.6414634 40.8986207,26.3527805 41.2535172,26.3527805 L41.2535172,26.3527805 Z M66.6948966,19.108878 C67.0487241,19.108878 67.3362759,19.397561 67.3362759,19.7527805 L67.3362759,19.7527805 L67.3362759,22.7576585 C67.3362759,23.1139512 67.0487241,23.401561 66.6948966,23.401561 L66.6948966,23.401561 L41.2535172,23.401561 C40.8986207,23.401561 40.6121379,23.1139512 40.6121379,22.7576585 L40.6121379,22.7576585 L40.6121379,19.7527805 C40.6121379,19.397561 40.8986207,19.108878 41.2535172,19.108878 L41.2535172,19.108878 Z" id="🎨-Brand-Color" fill="#E05929"></path>
                </g>
            </g>
        </g>
    </g>
</svg>